<svg width="337" height="18" viewBox="0 0 337 18" fill="none" xmlns="http://www.w3.org/2000/svg">
<path d="M3.738 4.004H5.6L9.45 14H7.574L6.636 11.354H2.646L1.708 14H-0.098L3.738 4.004ZM3.122 10.024H6.174L4.676 5.726H4.634L3.122 10.024ZM11.2419 11.676C11.2886 12.1427 11.4659 12.4693 11.7739 12.656C12.0819 12.8427 12.4506 12.936 12.8799 12.936C13.0292 12.936 13.1972 12.9267 13.3839 12.908C13.5799 12.88 13.7619 12.8333 13.9299 12.768C14.0979 12.7027 14.2332 12.6093 14.3359 12.488C14.4479 12.3573 14.4992 12.1893 14.4899 11.984C14.4806 11.7787 14.4059 11.6107 14.2659 11.48C14.1259 11.3493 13.9439 11.2467 13.7199 11.172C13.5052 11.088 13.2579 11.018 12.9779 10.962C12.6979 10.906 12.4132 10.8453 12.1239 10.78C11.8252 10.7147 11.5359 10.6353 11.2559 10.542C10.9852 10.4487 10.7379 10.3227 10.5139 10.164C10.2992 10.0053 10.1266 9.80467 9.99589 9.562C9.86522 9.31 9.79989 9.002 9.79989 8.638C9.79989 8.246 9.89322 7.91933 10.0799 7.658C10.2759 7.38733 10.5186 7.17267 10.8079 7.014C11.1066 6.846 11.4332 6.72933 11.7879 6.664C12.1519 6.59867 12.4972 6.566 12.8239 6.566C13.1972 6.566 13.5519 6.608 13.8879 6.692C14.2332 6.76667 14.5412 6.89267 14.8119 7.07C15.0919 7.24733 15.3206 7.48067 15.4979 7.77C15.6846 8.05 15.8012 8.39067 15.8479 8.792H14.1819C14.1072 8.40933 13.9299 8.15267 13.6499 8.022C13.3792 7.89133 13.0666 7.826 12.7119 7.826C12.5999 7.826 12.4646 7.83533 12.3059 7.854C12.1566 7.87267 12.0119 7.91 11.8719 7.966C11.7412 8.01267 11.6292 8.08733 11.5359 8.19C11.4426 8.28333 11.3959 8.40933 11.3959 8.568C11.3959 8.764 11.4612 8.92267 11.5919 9.044C11.7319 9.16533 11.9092 9.268 12.1239 9.352C12.3479 9.42667 12.5999 9.492 12.8799 9.548C13.1599 9.604 13.4492 9.66467 13.7479 9.73C14.0372 9.79533 14.3219 9.87467 14.6019 9.968C14.8819 10.0613 15.1292 10.1873 15.3439 10.346C15.5679 10.5047 15.7452 10.7053 15.8759 10.948C16.0159 11.1907 16.0859 11.4893 16.0859 11.844C16.0859 12.2733 15.9879 12.6373 15.7919 12.936C15.5959 13.2347 15.3392 13.4773 15.0219 13.664C14.7139 13.8507 14.3686 13.986 13.9859 14.07C13.6032 14.154 13.2252 14.196 12.8519 14.196C12.3946 14.196 11.9699 14.1447 11.5779 14.042C11.1952 13.9393 10.8592 13.7853 10.5699 13.58C10.2899 13.3653 10.0659 13.104 9.89789 12.796C9.73922 12.4787 9.65522 12.1053 9.64589 11.676H11.2419ZM17.1997 4.004H18.7957V9.688L21.6797 6.762H23.6397L20.8677 9.422L23.9057 14H21.9597L19.7477 10.486L18.7957 11.41V14H17.1997V4.004ZM34.3557 12.39C34.3557 12.586 34.379 12.726 34.4257 12.81C34.4817 12.894 34.5843 12.936 34.7337 12.936C34.7803 12.936 34.8363 12.936 34.9017 12.936C34.967 12.936 35.0417 12.9267 35.1257 12.908V14.014C35.0697 14.0327 34.995 14.0513 34.9017 14.07C34.8177 14.098 34.729 14.1213 34.6357 14.14C34.5423 14.1587 34.449 14.1727 34.3557 14.182C34.2623 14.1913 34.183 14.196 34.1177 14.196C33.791 14.196 33.5203 14.1307 33.3057 14C33.091 13.8693 32.951 13.6407 32.8857 13.314C32.5683 13.622 32.1763 13.846 31.7097 13.986C31.2523 14.126 30.809 14.196 30.3797 14.196C30.053 14.196 29.7403 14.1493 29.4417 14.056C29.143 13.972 28.877 13.846 28.6437 13.678C28.4197 13.5007 28.2377 13.2813 28.0977 13.02C27.967 12.7493 27.9017 12.4367 27.9017 12.082C27.9017 11.634 27.981 11.27 28.1397 10.99C28.3077 10.71 28.5223 10.4907 28.7837 10.332C29.0543 10.1733 29.353 10.0613 29.6797 9.996C30.0157 9.92133 30.3517 9.86533 30.6877 9.828C30.977 9.772 31.2523 9.73467 31.5137 9.716C31.775 9.688 32.0037 9.646 32.1997 9.59C32.405 9.534 32.5637 9.45 32.6757 9.338C32.797 9.21667 32.8577 9.03933 32.8577 8.806C32.8577 8.60067 32.8063 8.43267 32.7037 8.302C32.6103 8.17133 32.489 8.07333 32.3397 8.008C32.1997 7.93333 32.041 7.88667 31.8637 7.868C31.6863 7.84 31.5183 7.826 31.3597 7.826C30.9117 7.826 30.543 7.91933 30.2537 8.106C29.9643 8.29267 29.801 8.582 29.7637 8.974H28.1677C28.1957 8.50733 28.3077 8.12 28.5037 7.812C28.6997 7.504 28.947 7.25667 29.2457 7.07C29.5537 6.88333 29.899 6.75267 30.2817 6.678C30.6643 6.60333 31.0563 6.566 31.4577 6.566C31.8123 6.566 32.1623 6.60333 32.5077 6.678C32.853 6.75267 33.161 6.874 33.4317 7.042C33.7117 7.21 33.9357 7.42933 34.1037 7.7C34.2717 7.96133 34.3557 8.28333 34.3557 8.666V12.39ZM32.7597 10.374C32.517 10.5327 32.2183 10.6307 31.8637 10.668C31.509 10.696 31.1543 10.7427 30.7997 10.808C30.6317 10.836 30.4683 10.878 30.3097 10.934C30.151 10.9807 30.011 11.0507 29.8897 11.144C29.7683 11.228 29.6703 11.3447 29.5957 11.494C29.5303 11.634 29.4977 11.8067 29.4977 12.012C29.4977 12.1893 29.549 12.3387 29.6517 12.46C29.7543 12.5813 29.8757 12.6793 30.0157 12.754C30.165 12.8193 30.3237 12.866 30.4917 12.894C30.669 12.922 30.8277 12.936 30.9677 12.936C31.145 12.936 31.3363 12.9127 31.5417 12.866C31.747 12.8193 31.9383 12.74 32.1157 12.628C32.3023 12.516 32.4563 12.376 32.5777 12.208C32.699 12.0307 32.7597 11.816 32.7597 11.564V10.374ZM35.975 4.004H37.571V7.7H37.599C37.711 7.52267 37.8463 7.364 38.005 7.224C38.1636 7.084 38.3363 6.96733 38.523 6.874C38.719 6.77133 38.9196 6.69667 39.125 6.65C39.3396 6.594 39.5496 6.566 39.755 6.566C40.3243 6.566 40.819 6.66867 41.239 6.874C41.6683 7.07 42.023 7.34533 42.303 7.7C42.583 8.04533 42.793 8.45133 42.933 8.918C43.073 9.38467 43.143 9.884 43.143 10.416C43.143 10.9013 43.0776 11.3727 42.947 11.83C42.8256 12.2873 42.6343 12.6933 42.373 13.048C42.121 13.3933 41.799 13.6733 41.407 13.888C41.015 14.0933 40.553 14.196 40.021 14.196C39.7783 14.196 39.531 14.1773 39.279 14.14C39.0363 14.112 38.803 14.0513 38.579 13.958C38.355 13.8647 38.1496 13.7433 37.963 13.594C37.7856 13.4447 37.6363 13.2487 37.515 13.006H37.487V14H35.975V4.004ZM41.547 10.388C41.547 10.0613 41.505 9.744 41.421 9.436C41.337 9.128 41.211 8.85733 41.043 8.624C40.875 8.38133 40.665 8.19 40.413 8.05C40.161 7.90067 39.8716 7.826 39.545 7.826C38.873 7.826 38.3643 8.05933 38.019 8.526C37.683 8.99267 37.515 9.61333 37.515 10.388C37.515 10.752 37.557 11.0927 37.641 11.41C37.7343 11.718 37.8696 11.984 38.047 12.208C38.2243 12.432 38.4343 12.6093 38.677 12.74C38.929 12.8707 39.2183 12.936 39.545 12.936C39.909 12.936 40.217 12.8613 40.469 12.712C40.721 12.5627 40.9263 12.3713 41.085 12.138C41.253 11.8953 41.3696 11.6247 41.435 11.326C41.5096 11.018 41.547 10.7053 41.547 10.388ZM47.6696 14.196C47.0909 14.196 46.5729 14.1027 46.1156 13.916C45.6676 13.72 45.2849 13.454 44.9676 13.118C44.6596 12.782 44.4216 12.3807 44.2536 11.914C44.0949 11.4473 44.0156 10.934 44.0156 10.374C44.0156 9.82333 44.0949 9.31467 44.2536 8.848C44.4216 8.38133 44.6596 7.98 44.9676 7.644C45.2849 7.308 45.6676 7.04667 46.1156 6.86C46.5729 6.664 47.0909 6.566 47.6696 6.566C48.2482 6.566 48.7616 6.664 49.2096 6.86C49.6669 7.04667 50.0496 7.308 50.3576 7.644C50.6749 7.98 50.9129 8.38133 51.0716 8.848C51.2396 9.31467 51.3236 9.82333 51.3236 10.374C51.3236 10.934 51.2396 11.4473 51.0716 11.914C50.9129 12.3807 50.6749 12.782 50.3576 13.118C50.0496 13.454 49.6669 13.72 49.2096 13.916C48.7616 14.1027 48.2482 14.196 47.6696 14.196ZM47.6696 12.936C48.0242 12.936 48.3322 12.8613 48.5936 12.712C48.8549 12.5627 49.0696 12.3667 49.2376 12.124C49.4056 11.8813 49.5269 11.6107 49.6016 11.312C49.6856 11.004 49.7276 10.6913 49.7276 10.374C49.7276 10.066 49.6856 9.758 49.6016 9.45C49.5269 9.142 49.4056 8.87133 49.2376 8.638C49.0696 8.39533 48.8549 8.19933 48.5936 8.05C48.3322 7.90067 48.0242 7.826 47.6696 7.826C47.3149 7.826 47.0069 7.90067 46.7456 8.05C46.4842 8.19933 46.2696 8.39533 46.1016 8.638C45.9336 8.87133 45.8076 9.142 45.7236 9.45C45.6489 9.758 45.6116 10.066 45.6116 10.374C45.6116 10.6913 45.6489 11.004 45.7236 11.312C45.8076 11.6107 45.9336 11.8813 46.1016 12.124C46.2696 12.3667 46.4842 12.5627 46.7456 12.712C47.0069 12.8613 47.3149 12.936 47.6696 12.936ZM58.8664 14H57.2984V12.992H57.2704C57.0744 13.356 56.7804 13.65 56.3884 13.874C56.0057 14.0887 55.6137 14.196 55.2124 14.196C54.2604 14.196 53.5697 13.9627 53.1404 13.496C52.7204 13.02 52.5104 12.306 52.5104 11.354V6.762H54.1064V11.2C54.1064 11.8347 54.2277 12.2827 54.4704 12.544C54.7131 12.8053 55.0537 12.936 55.4924 12.936C55.8284 12.936 56.1084 12.8847 56.3324 12.782C56.5564 12.6793 56.7384 12.544 56.8784 12.376C57.0184 12.1987 57.1164 11.9887 57.1724 11.746C57.2377 11.5033 57.2704 11.242 57.2704 10.962V6.762H58.8664V14ZM59.6815 6.762H60.8855V4.592H62.4815V6.762H63.9235V7.952H62.4815V11.816C62.4815 11.984 62.4861 12.1287 62.4955 12.25C62.5141 12.3713 62.5468 12.474 62.5935 12.558C62.6495 12.642 62.7288 12.7073 62.8315 12.754C62.9341 12.7913 63.0741 12.81 63.2515 12.81C63.3635 12.81 63.4755 12.81 63.5875 12.81C63.6995 12.8007 63.8115 12.782 63.9235 12.754V13.986C63.7461 14.0047 63.5735 14.0233 63.4055 14.042C63.2375 14.0607 63.0648 14.07 62.8875 14.07C62.4675 14.07 62.1268 14.0327 61.8655 13.958C61.6135 13.874 61.4128 13.7573 61.2635 13.608C61.1235 13.4493 61.0255 13.2533 60.9695 13.02C60.9228 12.7867 60.8948 12.5207 60.8855 12.222V7.952H59.6815V6.762ZM67.89 6.762H69.64L71.53 12.166H71.558L73.392 6.762H75.058L72.244 14.392C72.1134 14.7187 71.9827 15.0313 71.852 15.33C71.7307 15.6287 71.5767 15.89 71.39 16.114C71.2127 16.3473 70.9887 16.5293 70.718 16.66C70.4474 16.8 70.102 16.87 69.682 16.87C69.3087 16.87 68.94 16.842 68.576 16.786V15.442C68.7067 15.4607 68.8327 15.4793 68.954 15.498C69.0754 15.526 69.2014 15.54 69.332 15.54C69.5187 15.54 69.6727 15.5167 69.794 15.47C69.9154 15.4233 70.0134 15.3533 70.088 15.26C70.172 15.176 70.242 15.0733 70.298 14.952C70.354 14.8307 70.4054 14.6907 70.452 14.532L70.634 13.972L67.89 6.762ZM79.1258 14.196C78.5471 14.196 78.0291 14.1027 77.5718 13.916C77.1238 13.72 76.7411 13.454 76.4238 13.118C76.1158 12.782 75.8778 12.3807 75.7098 11.914C75.5511 11.4473 75.4718 10.934 75.4718 10.374C75.4718 9.82333 75.5511 9.31467 75.7098 8.848C75.8778 8.38133 76.1158 7.98 76.4238 7.644C76.7411 7.308 77.1238 7.04667 77.5718 6.86C78.0291 6.664 78.5471 6.566 79.1258 6.566C79.7045 6.566 80.2178 6.664 80.6658 6.86C81.1231 7.04667 81.5058 7.308 81.8138 7.644C82.1311 7.98 82.3691 8.38133 82.5278 8.848C82.6958 9.31467 82.7798 9.82333 82.7798 10.374C82.7798 10.934 82.6958 11.4473 82.5278 11.914C82.3691 12.3807 82.1311 12.782 81.8138 13.118C81.5058 13.454 81.1231 13.72 80.6658 13.916C80.2178 14.1027 79.7045 14.196 79.1258 14.196ZM79.1258 12.936C79.4805 12.936 79.7885 12.8613 80.0498 12.712C80.3111 12.5627 80.5258 12.3667 80.6938 12.124C80.8618 11.8813 80.9831 11.6107 81.0578 11.312C81.1418 11.004 81.1838 10.6913 81.1838 10.374C81.1838 10.066 81.1418 9.758 81.0578 9.45C80.9831 9.142 80.8618 8.87133 80.6938 8.638C80.5258 8.39533 80.3111 8.19933 80.0498 8.05C79.7885 7.90067 79.4805 7.826 79.1258 7.826C78.7711 7.826 78.4631 7.90067 78.2018 8.05C77.9405 8.19933 77.7258 8.39533 77.5578 8.638C77.3898 8.87133 77.2638 9.142 77.1798 9.45C77.1051 9.758 77.0678 10.066 77.0678 10.374C77.0678 10.6913 77.1051 11.004 77.1798 11.312C77.2638 11.6107 77.3898 11.8813 77.5578 12.124C77.7258 12.3667 77.9405 12.5627 78.2018 12.712C78.4631 12.8613 78.7711 12.936 79.1258 12.936ZM90.3226 14H88.7546V12.992H88.7266C88.5306 13.356 88.2366 13.65 87.8446 13.874C87.462 14.0887 87.07 14.196 86.6686 14.196C85.7166 14.196 85.026 13.9627 84.5966 13.496C84.1766 13.02 83.9666 12.306 83.9666 11.354V6.762H85.5626V11.2C85.5626 11.8347 85.684 12.2827 85.9266 12.544C86.1693 12.8053 86.51 12.936 86.9486 12.936C87.2846 12.936 87.5646 12.8847 87.7886 12.782C88.0126 12.6793 88.1946 12.544 88.3346 12.376C88.4746 12.1987 88.5726 11.9887 88.6286 11.746C88.694 11.5033 88.7266 11.242 88.7266 10.962V6.762H90.3226V14ZM91.8657 6.762H93.3637V8.162H93.3917C93.4384 7.966 93.527 7.77467 93.6577 7.588C93.7977 7.40133 93.961 7.23333 94.1477 7.084C94.3437 6.92533 94.5584 6.79933 94.7917 6.706C95.025 6.61267 95.263 6.566 95.5057 6.566C95.6924 6.566 95.8184 6.57067 95.8837 6.58C95.9584 6.58933 96.033 6.59867 96.1077 6.608V8.148C95.9957 8.12933 95.879 8.11533 95.7577 8.106C95.6457 8.08733 95.5337 8.078 95.4217 8.078C95.151 8.078 94.8944 8.134 94.6517 8.246C94.4184 8.34867 94.213 8.50733 94.0357 8.722C93.8584 8.92733 93.7184 9.184 93.6157 9.492C93.513 9.8 93.4617 10.1547 93.4617 10.556V14H91.8657V6.762ZM107.222 14H105.71V13.02H105.682C105.467 13.44 105.155 13.7433 104.744 13.93C104.333 14.1073 103.899 14.196 103.442 14.196C102.873 14.196 102.373 14.098 101.944 13.902C101.524 13.6967 101.174 13.4213 100.894 13.076C100.614 12.7307 100.404 12.3247 100.264 11.858C100.124 11.382 100.054 10.8733 100.054 10.332C100.054 9.67867 100.143 9.114 100.32 8.638C100.497 8.162 100.731 7.77 101.02 7.462C101.319 7.154 101.655 6.93 102.028 6.79C102.411 6.64067 102.798 6.566 103.19 6.566C103.414 6.566 103.643 6.58933 103.876 6.636C104.109 6.67333 104.333 6.73867 104.548 6.832C104.763 6.92533 104.959 7.04667 105.136 7.196C105.323 7.336 105.477 7.504 105.598 7.7H105.626V4.004H107.222V14ZM101.65 10.458C101.65 10.766 101.687 11.0693 101.762 11.368C101.846 11.6667 101.967 11.9327 102.126 12.166C102.294 12.3993 102.504 12.586 102.756 12.726C103.008 12.866 103.307 12.936 103.652 12.936C104.007 12.936 104.31 12.8613 104.562 12.712C104.823 12.5627 105.033 12.3667 105.192 12.124C105.36 11.8813 105.481 11.6107 105.556 11.312C105.64 11.004 105.682 10.6913 105.682 10.374C105.682 9.57133 105.5 8.946 105.136 8.498C104.781 8.05 104.296 7.826 103.68 7.826C103.307 7.826 102.989 7.90533 102.728 8.064C102.476 8.21333 102.266 8.414 102.098 8.666C101.939 8.90867 101.823 9.18867 101.748 9.506C101.683 9.814 101.65 10.1313 101.65 10.458ZM114.885 12.39C114.885 12.586 114.908 12.726 114.955 12.81C115.011 12.894 115.113 12.936 115.263 12.936C115.309 12.936 115.365 12.936 115.431 12.936C115.496 12.936 115.571 12.9267 115.655 12.908V14.014C115.599 14.0327 115.524 14.0513 115.431 14.07C115.347 14.098 115.258 14.1213 115.165 14.14C115.071 14.1587 114.978 14.1727 114.885 14.182C114.791 14.1913 114.712 14.196 114.647 14.196C114.32 14.196 114.049 14.1307 113.835 14C113.62 13.8693 113.48 13.6407 113.415 13.314C113.097 13.622 112.705 13.846 112.239 13.986C111.781 14.126 111.338 14.196 110.909 14.196C110.582 14.196 110.269 14.1493 109.971 14.056C109.672 13.972 109.406 13.846 109.173 13.678C108.949 13.5007 108.767 13.2813 108.627 13.02C108.496 12.7493 108.431 12.4367 108.431 12.082C108.431 11.634 108.51 11.27 108.669 10.99C108.837 10.71 109.051 10.4907 109.313 10.332C109.583 10.1733 109.882 10.0613 110.209 9.996C110.545 9.92133 110.881 9.86533 111.217 9.828C111.506 9.772 111.781 9.73467 112.043 9.716C112.304 9.688 112.533 9.646 112.729 9.59C112.934 9.534 113.093 9.45 113.205 9.338C113.326 9.21667 113.387 9.03933 113.387 8.806C113.387 8.60067 113.335 8.43267 113.233 8.302C113.139 8.17133 113.018 8.07333 112.869 8.008C112.729 7.93333 112.57 7.88667 112.393 7.868C112.215 7.84 112.047 7.826 111.889 7.826C111.441 7.826 111.072 7.91933 110.783 8.106C110.493 8.29267 110.33 8.582 110.293 8.974H108.697C108.725 8.50733 108.837 8.12 109.033 7.812C109.229 7.504 109.476 7.25667 109.775 7.07C110.083 6.88333 110.428 6.75267 110.811 6.678C111.193 6.60333 111.585 6.566 111.987 6.566C112.341 6.566 112.691 6.60333 113.037 6.678C113.382 6.75267 113.69 6.874 113.961 7.042C114.241 7.21 114.465 7.42933 114.633 7.7C114.801 7.96133 114.885 8.28333 114.885 8.666V12.39ZM113.289 10.374C113.046 10.5327 112.747 10.6307 112.393 10.668C112.038 10.696 111.683 10.7427 111.329 10.808C111.161 10.836 110.997 10.878 110.839 10.934C110.68 10.9807 110.54 11.0507 110.419 11.144C110.297 11.228 110.199 11.3447 110.125 11.494C110.059 11.634 110.027 11.8067 110.027 12.012C110.027 12.1893 110.078 12.3387 110.181 12.46C110.283 12.5813 110.405 12.6793 110.545 12.754C110.694 12.8193 110.853 12.866 111.021 12.894C111.198 12.922 111.357 12.936 111.497 12.936C111.674 12.936 111.865 12.9127 112.071 12.866C112.276 12.8193 112.467 12.74 112.645 12.628C112.831 12.516 112.985 12.376 113.107 12.208C113.228 12.0307 113.289 11.816 113.289 11.564V10.374ZM115.664 6.762H117.414L119.304 12.166H119.332L121.166 6.762H122.832L120.018 14.392C119.887 14.7187 119.757 15.0313 119.626 15.33C119.505 15.6287 119.351 15.89 119.164 16.114C118.987 16.3473 118.763 16.5293 118.492 16.66C118.221 16.8 117.876 16.87 117.456 16.87C117.083 16.87 116.714 16.842 116.35 16.786V15.442C116.481 15.4607 116.607 15.4793 116.728 15.498C116.849 15.526 116.975 15.54 117.106 15.54C117.293 15.54 117.447 15.5167 117.568 15.47C117.689 15.4233 117.787 15.3533 117.862 15.26C117.946 15.176 118.016 15.0733 118.072 14.952C118.128 14.8307 118.179 14.6907 118.226 14.532L118.408 13.972L115.664 6.762ZM133.424 12.11H135.37V14H133.424V12.11ZM128.762 12.11H130.708V14H128.762V12.11ZM124.1 12.11H126.046V14H124.1V12.11Z" fill="#646C7E"/>
</svg>
