<svg width="24" height="24" viewBox="0 0 24 24" fill="none" xmlns="http://www.w3.org/2000/svg">
<path d="M16 12.9V17.1C16 20.6 14.6 22 11.1 22H6.9C3.4 22 2 20.6 2 17.1V12.9C2 9.4 3.4 8 6.9 8H11.1C14.6 8 16 9.4 16 12.9Z" fill="white"/>
<path d="M17.1017 2H12.9017C9.81864 2 8.3727 3.09409 8.07146 5.73901C8.00844 6.29235 8.46671 6.75 9.02362 6.75H11.1017C15.3017 6.75 17.2517 8.7 17.2517 12.9V14.9781C17.2517 15.535 17.7094 15.9933 18.2627 15.9303C20.9076 15.629 22.0017 14.1831 22.0017 11.1V6.9C22.0017 3.4 20.6017 2 17.1017 2Z" fill="white"/>
</svg>
