<svg width="24" height="24" viewBox="0 0 24 24" fill="none" xmlns="http://www.w3.org/2000/svg">
<path d="M2 7.81L2 16.19C2 19.83 4.17 22 7.81 22H16.18C19.83 22 22 19.83 22 16.19V7.82C22 4.18 19.83 2.01 16.19 2.01H7.81C4.17 2 2 4.17 2 7.81ZM17 13.01C17.1 13.01 17.19 13.03 17.29 13.07C17.47 13.15 17.62 13.29 17.7 13.48C17.74 13.57 17.76 13.67 17.76 13.77C17.76 13.87 17.74 13.96 17.7 14.06C17.66 14.15 17.61 14.23 17.54 14.3L14.59 17.25C14.3 17.54 13.82 17.54 13.53 17.25C13.24 16.96 13.24 16.48 13.53 16.19L15.2 14.52H7C6.59 14.52 6.25 14.18 6.25 13.77C6.25 13.36 6.59 13.01 7 13.01L17 13.01ZM10.48 6.76C10.63 6.91 10.7 7.1 10.7 7.29C10.7 7.48 10.63 7.67 10.48 7.82L8.81 9.49L17 9.49C17.41 9.49 17.75 9.83 17.75 10.24C17.75 10.65 17.41 10.99 17 10.99L7 10.99C6.9 10.99 6.81 10.97 6.71 10.93C6.53 10.85 6.38 10.71 6.3 10.52C6.22 10.34 6.22 10.13 6.3 9.95C6.34 9.86 6.39 9.78 6.46 9.71L9.41 6.76C9.71 6.47 10.19 6.47 10.48 6.76Z" fill="white"/>
</svg>
