<svg width="24" height="24" viewBox="0 0 24 24" fill="none" xmlns="http://www.w3.org/2000/svg">
<path d="M11.9621 20C10.0414 20 8.35609 19.4107 6.90609 18.232C5.45609 17.0533 4.54075 15.5427 4.16009 13.7C4.11875 13.5527 4.13342 13.4163 4.20409 13.291C4.27475 13.1657 4.38742 13.093 4.54209 13.073C4.68075 13.053 4.80409 13.084 4.91209 13.166C5.01942 13.248 5.09575 13.3647 5.14109 13.516C5.50242 15.1053 6.31775 16.4167 7.58709 17.45C8.85642 18.4833 10.3148 19 11.9621 19C13.9121 19 15.5661 18.321 16.9241 16.963C18.2821 15.605 18.9614 13.9507 18.9621 12C18.9628 10.0493 18.2834 8.395 16.9241 7.037C15.5648 5.679 13.9108 5 11.9621 5C10.9268 5 9.95409 5.21867 9.04409 5.656C8.13409 6.09267 7.33075 6.69433 6.63409 7.461H8.61509C8.75775 7.461 8.87676 7.509 8.97209 7.605C9.06742 7.70033 9.11509 7.819 9.11509 7.961C9.11509 8.103 9.06742 8.222 8.97209 8.318C8.87676 8.414 8.75775 8.46167 8.61509 8.461H5.77009C5.53809 8.461 5.34542 8.38433 5.19209 8.231C5.03875 8.07833 4.96209 7.886 4.96209 7.654V4.808C4.96209 4.66533 5.01009 4.54633 5.10609 4.451C5.20209 4.35567 5.32109 4.308 5.46309 4.308C5.60509 4.308 5.72375 4.35567 5.81909 4.451C5.91442 4.54633 5.96242 4.66533 5.96309 4.808V6.696C6.73642 5.84733 7.64242 5.186 8.68109 4.712C9.71975 4.238 10.8134 4.00067 11.9621 4C13.0708 4 14.1101 4.20867 15.0801 4.626C16.0501 5.04333 16.8974 5.61467 17.6221 6.34C18.3468 7.06533 18.9181 7.91267 19.3361 8.882C19.7541 9.85133 19.9628 10.8907 19.9621 12C19.9614 13.1093 19.7528 14.1487 19.3361 15.118C18.9194 16.0873 18.3481 16.9347 17.6221 17.66C16.8961 18.3853 16.0488 18.9567 15.0801 19.374C14.1114 19.7913 13.0721 20 11.9621 20ZM12.5191 11.792L15.5191 14.792C15.6124 14.8853 15.6624 15 15.6691 15.136C15.6758 15.2727 15.6258 15.394 15.5191 15.5C15.4124 15.6067 15.2948 15.66 15.1661 15.66C15.0361 15.66 14.9181 15.6067 14.8121 15.5L11.7621 12.45C11.6748 12.3633 11.6124 12.2733 11.5751 12.18C11.5378 12.0867 11.5191 11.9863 11.5191 11.879V7.5C11.5191 7.358 11.5671 7.239 11.6631 7.143C11.7591 7.047 11.8778 6.99933 12.0191 7C12.1604 7.00067 12.2794 7.04833 12.3761 7.143C12.4728 7.23767 12.5204 7.35667 12.5191 7.5V11.792Z" fill="white"/>
</svg>
