<svg width="24" height="24" viewBox="0 0 24 24" fill="none" xmlns="http://www.w3.org/2000/svg">
<path d="M13.6095 8.5222C13.7484 7.97201 14.5302 7.97202 14.669 8.52221L14.9181 9.50867C15.6513 12.4134 18.0578 14.6309 21.0048 15.1693C21.6024 15.2785 21.6024 16.1451 21.0048 16.2543C18.0578 16.7927 15.6513 19.0103 14.9181 21.915L14.669 22.9014C14.5302 23.4516 13.7484 23.4516 13.6095 22.9014L13.3605 21.915C12.6273 19.0103 10.2208 16.7927 7.27377 16.2543C6.67622 16.1451 6.67622 15.2785 7.27377 15.1693C10.2208 14.6309 12.6273 12.4134 13.3605 9.50867L13.6095 8.5222Z" fill="white" fill-opacity="0.3"/>
<path d="M5.65234 2.99019C5.70033 2.57742 6.29967 2.57742 6.34766 2.99019L6.40634 3.4949C6.58598 5.03999 7.76378 6.28112 9.29735 6.54136L9.96659 6.65493C10.3552 6.72088 10.3552 7.27912 9.96659 7.34507L9.29735 7.45864C7.76378 7.71888 6.58598 8.96001 6.40634 10.5051L6.34766 11.0098C6.29967 11.4226 5.70033 11.4226 5.65234 11.0098L5.59366 10.5051C5.41402 8.96001 4.23622 7.71888 2.70265 7.45864L2.03341 7.34507C1.64482 7.27912 1.64482 6.72088 2.03341 6.65493L2.70265 6.54136C4.23622 6.28112 5.41402 5.03999 5.59366 3.49491L5.65234 2.99019Z" fill="white" fill-opacity="0.3"/>
</svg>
