<svg width="24" height="24" viewBox="0 0 24 24" fill="none" xmlns="http://www.w3.org/2000/svg">
<path d="M11.9616 20C10.0409 20 8.3556 19.4107 6.9056 18.232C5.4556 17.0533 4.54027 15.5427 4.1596 13.7C4.11827 13.5527 4.13293 13.4163 4.2036 13.291C4.27427 13.1657 4.38693 13.093 4.5416 13.073C4.68027 13.053 4.8036 13.084 4.9116 13.166C5.01893 13.248 5.09527 13.3647 5.1406 13.516C5.50193 15.1053 6.31727 16.4167 7.5866 17.45C8.85593 18.4833 10.3143 19 11.9616 19C13.9116 19 15.5656 18.321 16.9236 16.963C18.2816 15.605 18.9609 13.9507 18.9616 12C18.9623 10.0493 18.2829 8.395 16.9236 7.037C15.5643 5.679 13.9103 5 11.9616 5C10.9263 5 9.9536 5.21867 9.0436 5.656C8.1336 6.09267 7.33027 6.69433 6.6336 7.461H8.6146C8.75727 7.461 8.87627 7.509 8.9716 7.605C9.06693 7.70033 9.1146 7.819 9.1146 7.961C9.1146 8.103 9.06693 8.222 8.9716 8.318C8.87627 8.414 8.75727 8.46167 8.6146 8.461H5.7696C5.5376 8.461 5.34493 8.38433 5.1916 8.231C5.03827 8.07833 4.9616 7.886 4.9616 7.654V4.808C4.9616 4.66533 5.0096 4.54633 5.1056 4.451C5.2016 4.35567 5.3206 4.308 5.4626 4.308C5.6046 4.308 5.72327 4.35567 5.8186 4.451C5.91393 4.54633 5.96193 4.66533 5.9626 4.808V6.696C6.73593 5.84733 7.64193 5.186 8.6806 4.712C9.71927 4.238 10.8129 4.00067 11.9616 4C13.0703 4 14.1096 4.20867 15.0796 4.626C16.0496 5.04333 16.8969 5.61467 17.6216 6.34C18.3463 7.06533 18.9176 7.91267 19.3356 8.882C19.7536 9.85133 19.9623 10.8907 19.9616 12C19.9609 13.1093 19.7523 14.1487 19.3356 15.118C18.9189 16.0873 18.3476 16.9347 17.6216 17.66C16.8956 18.3853 16.0483 18.9567 15.0796 19.374C14.1109 19.7913 13.0716 20 11.9616 20ZM12.5186 11.792L15.5186 14.792C15.6119 14.8853 15.6619 15 15.6686 15.136C15.6753 15.2727 15.6253 15.394 15.5186 15.5C15.4119 15.6067 15.2943 15.66 15.1656 15.66C15.0356 15.66 14.9176 15.6067 14.8116 15.5L11.7616 12.45C11.6743 12.3633 11.6119 12.2733 11.5746 12.18C11.5373 12.0867 11.5186 11.9863 11.5186 11.879V7.5C11.5186 7.358 11.5666 7.239 11.6626 7.143C11.7586 7.047 11.8773 6.99933 12.0186 7C12.1599 7.00067 12.2789 7.04833 12.3756 7.143C12.4723 7.23767 12.5199 7.35667 12.5186 7.5V11.792Z" fill="white"/>
</svg>
