<svg width="20" height="20" viewBox="0 0 20 20" fill="none" xmlns="http://www.w3.org/2000/svg">
<path d="M3.33371 9.16675C3.54611 9.16698 3.75041 9.24831 3.90485 9.39412C4.0593 9.53993 4.15224 9.73921 4.16469 9.95124C4.17714 10.1633 4.10815 10.3721 3.97182 10.5349C3.8355 10.6978 3.64213 10.8025 3.43121 10.8276L3.33371 10.8334H2.50038C2.28798 10.8332 2.08369 10.7518 1.92924 10.606C1.77479 10.4602 1.68185 10.261 1.6694 10.0489C1.65695 9.83688 1.72594 9.6281 1.86227 9.46522C1.99859 9.30234 2.19197 9.19767 2.40288 9.17258L2.50038 9.16675H3.33371ZM10.0004 1.66675C10.2045 1.66677 10.4015 1.74171 10.554 1.87734C10.7066 2.01298 10.804 2.19987 10.8279 2.40258L10.8337 2.50008V3.33341C10.8335 3.54581 10.7521 3.75011 10.6063 3.90456C10.4605 4.059 10.2613 4.15194 10.0492 4.16439C9.83718 4.17684 9.6284 4.10785 9.46552 3.97153C9.30264 3.8352 9.19796 3.64183 9.17288 3.43091L9.16705 3.33341V2.50008C9.16705 2.27907 9.25484 2.06711 9.41112 1.91083C9.5674 1.75455 9.77936 1.66675 10.0004 1.66675ZM17.5004 9.16675C17.7128 9.16698 17.9171 9.24831 18.0715 9.39412C18.226 9.53993 18.3189 9.73921 18.3314 9.95124C18.3438 10.1633 18.2748 10.3721 18.1385 10.5349C18.0022 10.6978 17.8088 10.8025 17.5979 10.8276L17.5004 10.8334H16.667C16.4546 10.8332 16.2504 10.7518 16.0959 10.606C15.9415 10.4602 15.8485 10.261 15.8361 10.0489C15.8236 9.83688 15.8926 9.6281 16.0289 9.46522C16.1653 9.30234 16.3586 9.19767 16.5695 9.17258L16.667 9.16675H17.5004ZM4.07788 4.07758C4.22137 3.9341 4.41229 3.84791 4.61481 3.83517C4.81733 3.82244 5.01754 3.88404 5.17788 4.00841L5.25621 4.07758L5.83955 4.66091C5.989 4.81088 6.07577 5.01211 6.08224 5.22373C6.0887 5.43536 6.01437 5.64151 5.87434 5.80031C5.73431 5.95912 5.53909 6.05867 5.32832 6.07875C5.11755 6.09882 4.90704 6.03792 4.73955 5.90841L4.66121 5.83925L4.07788 5.25591C3.92165 5.09964 3.83389 4.88772 3.83389 4.66675C3.83389 4.44578 3.92165 4.23385 4.07788 4.07758ZM14.7445 4.07758C14.8945 3.92812 15.0957 3.84135 15.3074 3.83489C15.519 3.82843 15.7251 3.90276 15.8839 4.04279C16.0427 4.18282 16.1423 4.37804 16.1624 4.58881C16.1825 4.79958 16.1216 5.01009 15.992 5.17758L15.9229 5.25591L15.3395 5.83925C15.1896 5.9887 14.9883 6.07548 14.7767 6.08194C14.5651 6.0884 14.3589 6.01407 14.2001 5.87404C14.0413 5.73401 13.9418 5.53879 13.9217 5.32802C13.9016 5.11725 13.9625 4.90674 14.092 4.73925L14.1612 4.66091L14.7445 4.07758ZM11.667 15.0001C11.8881 15.0001 12.1 15.0879 12.2563 15.2442C12.4126 15.4004 12.5004 15.6124 12.5004 15.8334C12.5004 16.4965 12.237 17.1323 11.7681 17.6012C11.2993 18.07 10.6634 18.3334 10.0004 18.3334C9.33734 18.3334 8.70145 18.07 8.23261 17.6012C7.76377 17.1323 7.50038 16.4965 7.50038 15.8334C7.50041 15.6293 7.57534 15.4323 7.71097 15.2798C7.84661 15.1272 8.0335 15.0298 8.23621 15.0059L8.33371 15.0001H11.667ZM10.0004 5.00008C11.0498 5.00008 12.0726 5.33027 12.9239 5.94387C13.7753 6.55747 14.4119 7.42338 14.7438 8.41894C15.0756 9.4145 15.0858 10.4892 14.7729 11.4909C14.46 12.4926 13.8399 13.3704 13.0004 14.0001C12.8855 14.0864 12.7503 14.1415 12.6079 14.1601L12.5004 14.1667H7.50038C7.32007 14.1667 7.14463 14.1083 7.00038 14.0001C6.16085 13.3704 5.54071 12.4926 5.22781 11.4909C4.91491 10.4892 4.92511 9.4145 5.25696 8.41894C5.58882 7.42338 6.2255 6.55747 7.07683 5.94387C7.92815 5.33027 8.95097 5.00008 10.0004 5.00008Z" fill="white"/>
</svg>
