<svg width="20" height="20" viewBox="0 0 20 20" fill="none" xmlns="http://www.w3.org/2000/svg">
<g clip-path="url(#clip0_170_40656)">
<path d="M7.12043 0H7.29085L7.30708 0.0107603C7.34707 0.0369016 7.41906 0.0690295 7.45053 0.096333C7.56918 0.19927 7.68292 0.320112 7.79251 0.432765C8.01325 0.65696 8.22935 0.88568 8.44067 1.11878C10.1076 2.94327 11.5724 4.90521 12.6613 7.12908C12.8878 6.87065 13.119 6.61636 13.3547 6.36633C13.4994 6.2126 13.663 6.02953 13.831 5.90716C13.9745 5.80265 14.1901 5.87104 14.3077 5.98385C14.4515 6.1219 14.5857 6.26171 14.7223 6.40509C15.0438 6.74266 15.3555 7.08935 15.6572 7.44473C17.2223 9.29299 19.0714 11.9063 19.2565 14.3985C19.3597 15.7894 18.8714 17.1976 17.9364 18.241C17.2088 19.0536 16.2479 19.6214 15.1852 19.8666C14.9473 19.9214 14.7117 19.952 14.4686 19.9745C14.4241 19.9786 14.3721 19.9836 14.3307 20H13.7169C13.6266 19.9696 13.5178 19.9715 13.423 19.9601C12.862 19.8925 12.3213 19.7463 11.8085 19.5047C10.9359 19.097 10.1908 18.4593 9.65307 17.6601C9.57861 17.5495 9.40721 17.2795 9.36392 17.159C9.10315 17.2411 8.87667 17.3116 8.60811 17.3698C7.53482 17.6026 6.42026 17.5624 5.36655 17.2527C3.71558 16.7604 2.32705 15.6337 1.5051 14.1195C0.617176 12.481 0.530401 10.6491 1.07081 8.88794C1.92411 6.10708 3.99275 3.30068 5.92985 1.1715C6.15945 0.918726 6.39294 0.669507 6.63023 0.423937C6.78747 0.263565 6.92041 0.107927 7.12043 0ZM6.7067 16.7262C7.36692 16.7882 8.0329 16.7321 8.67351 16.5609C8.77052 16.5353 8.96127 16.4844 9.05014 16.4463C8.95999 16.1647 8.89766 15.938 8.8463 15.6445C8.57612 14.1007 9.08228 12.5648 9.78637 11.2042C10.4128 9.99346 11.2439 8.83129 12.1109 7.77648C11.0486 5.47618 9.51386 3.44462 7.81243 1.57907C7.74186 1.50169 7.25826 0.967167 7.20059 0.942929C6.70337 1.48406 6.21814 1.99704 5.74157 2.56461C3.89129 4.76817 1.37727 8.29199 1.50597 11.2913C1.5697 12.819 2.24646 14.2565 3.38332 15.279C4.26273 16.0807 5.5144 16.648 6.7067 16.7262ZM14.0382 19.2214C15.2374 19.2225 16.3859 18.7372 17.2208 17.8765C18.0455 17.0389 18.5049 15.9088 18.4985 14.7333C18.4835 12.5138 16.7384 9.97852 15.3744 8.31292C14.9655 7.8136 14.5188 7.30299 14.069 6.83904C14.051 6.82056 14.0313 6.80229 14.008 6.79093L14.0002 6.80137C13.8902 6.94507 13.6606 7.17028 13.5274 7.31733C13.237 7.63881 12.9538 7.96673 12.6781 8.30085C11.3905 9.86104 10.065 11.8217 9.6372 13.8227C9.27291 15.5268 9.93519 17.2463 11.3108 18.312C12.0937 18.9096 13.0534 19.2295 14.0382 19.2214Z" fill="white"/>
<path d="M3.84804 11.0967C4.03891 11.0925 4.19878 11.1473 4.27178 11.3449C4.31165 11.4528 4.29683 11.5932 4.30789 11.7091C4.32921 11.9233 4.37695 12.1342 4.45005 12.3367C4.75256 13.1617 5.46272 13.7697 6.32446 13.9415C6.39502 13.9552 6.49872 13.9761 6.56973 13.9794C6.80228 13.9899 7.08871 13.9747 7.17612 14.2565C7.2061 14.3559 7.19496 14.4633 7.14519 14.5545C7.07764 14.6785 6.99436 14.7185 6.86863 14.7547C6.36727 14.802 5.66769 14.5914 5.23149 14.3531C4.47633 13.9368 3.91367 13.2419 3.66347 12.4167C3.59086 12.1685 3.55406 11.9359 3.53193 11.6792C3.50806 11.4023 3.536 11.1759 3.84804 11.0967Z" fill="white"/>
</g>
<defs>
<clipPath id="clip0_170_40656">
<rect width="20" height="20" fill="white"/>
</clipPath>
</defs>
</svg>
